%TF.GenerationSoftware,KiCad,Pcbnew,9.0.3*%
%TF.CreationDate,2025-11-03T00:46:14-05:00*%
%TF.ProjectId,JabChip,4a616243-6869-4702-9e6b-696361645f70,rev?*%
%TF.SameCoordinates,Original*%
%TF.FileFunction,Soldermask,Bot*%
%TF.FilePolarity,Negative*%
%FSLAX46Y46*%
G04 Gerber Fmt 4.6, Leading zero omitted, Abs format (unit mm)*
G04 Created by KiCad (PCBNEW 9.0.3) date 2025-11-03 00:46:14*
%MOMM*%
%LPD*%
G01*
G04 APERTURE LIST*
%ADD10C,0.650000*%
%ADD11O,1.000000X2.100000*%
%ADD12O,1.000000X1.800000*%
%ADD13R,1.500000X0.900000*%
%ADD14R,0.900000X1.500000*%
G04 APERTURE END LIST*
D10*
%TO.C,J1*%
X141320000Y-67440600D03*
X135540000Y-67440600D03*
D11*
X142750000Y-67940600D03*
D12*
X142750000Y-63760600D03*
D11*
X134110000Y-67940600D03*
D12*
X134110000Y-63760600D03*
%TD*%
D13*
%TO.C,U4*%
X147383200Y-62659600D03*
X147383200Y-63929600D03*
X147383200Y-65199600D03*
X147383200Y-66469600D03*
X147383200Y-67739600D03*
X147383200Y-69009600D03*
X147383200Y-70279600D03*
X147383200Y-71549600D03*
X147383200Y-72819600D03*
X147383200Y-74089600D03*
X147383200Y-75359600D03*
X147383200Y-76629600D03*
X147383200Y-77899600D03*
X147383200Y-79169600D03*
D14*
X145618200Y-80419600D03*
X144348200Y-80419600D03*
X143078200Y-80419600D03*
X141808200Y-80419600D03*
X140538200Y-80419600D03*
X139268200Y-80419600D03*
X137998200Y-80419600D03*
X136728200Y-80419600D03*
X135458200Y-80419600D03*
X134188200Y-80419600D03*
X132918200Y-80419600D03*
X131648200Y-80419600D03*
D13*
X129883200Y-79169600D03*
X129883200Y-77899600D03*
X129883200Y-76629600D03*
X129883200Y-75359600D03*
X129883200Y-74089600D03*
X129883200Y-72819600D03*
X129883200Y-71549600D03*
X129883200Y-70279600D03*
X129883200Y-69009600D03*
X129883200Y-67739600D03*
X129883200Y-66469600D03*
X129883200Y-65199600D03*
X129883200Y-63929600D03*
X129883200Y-62659600D03*
%TD*%
M02*
