%TF.GenerationSoftware,KiCad,Pcbnew,9.0.3*%
%TF.CreationDate,2025-11-04T08:52:20-05:00*%
%TF.ProjectId,JabChip,4a616243-6869-4702-9e6b-696361645f70,rev?*%
%TF.SameCoordinates,Original*%
%TF.FileFunction,Copper,L4,Bot*%
%TF.FilePolarity,Positive*%
%FSLAX46Y46*%
G04 Gerber Fmt 4.6, Leading zero omitted, Abs format (unit mm)*
G04 Created by KiCad (PCBNEW 9.0.3) date 2025-11-04 08:52:20*
%MOMM*%
%LPD*%
G01*
G04 APERTURE LIST*
%TA.AperFunction,HeatsinkPad*%
%ADD10O,1.000000X2.100000*%
%TD*%
%TA.AperFunction,HeatsinkPad*%
%ADD11O,1.000000X1.800000*%
%TD*%
%TA.AperFunction,SMDPad,CuDef*%
%ADD12R,1.500000X0.900000*%
%TD*%
%TA.AperFunction,SMDPad,CuDef*%
%ADD13R,0.900000X1.500000*%
%TD*%
%TA.AperFunction,ViaPad*%
%ADD14C,0.600000*%
%TD*%
%TA.AperFunction,Conductor*%
%ADD15C,0.200000*%
%TD*%
%TA.AperFunction,Conductor*%
%ADD16C,0.300000*%
%TD*%
G04 APERTURE END LIST*
D10*
%TO.P,J1,S1,SHIELD*%
%TO.N,GND*%
X142750000Y-67940600D03*
D11*
X142750000Y-63760600D03*
D10*
X134110000Y-67940600D03*
D11*
X134110000Y-63760600D03*
%TD*%
D12*
%TO.P,U4,1,GND*%
%TO.N,GND*%
X147383200Y-62659600D03*
%TO.P,U4,2,3V3*%
%TO.N,+3V3*%
X147383200Y-63929600D03*
%TO.P,U4,3,EN*%
%TO.N,/EN*%
X147383200Y-65199600D03*
%TO.P,U4,4,IO4*%
%TO.N,/4*%
X147383200Y-66469600D03*
%TO.P,U4,5,IO5*%
%TO.N,/5*%
X147383200Y-67739600D03*
%TO.P,U4,6,IO6*%
%TO.N,/6*%
X147383200Y-69009600D03*
%TO.P,U4,7,IO7*%
%TO.N,/7*%
X147383200Y-70279600D03*
%TO.P,U4,8,IO15*%
%TO.N,/15*%
X147383200Y-71549600D03*
%TO.P,U4,9,IO16*%
%TO.N,/16*%
X147383200Y-72819600D03*
%TO.P,U4,10,IO17*%
%TO.N,/17*%
X147383200Y-74089600D03*
%TO.P,U4,11,IO18*%
%TO.N,SDA*%
X147383200Y-75359600D03*
%TO.P,U4,12,IO8*%
%TO.N,SCL*%
X147383200Y-76629600D03*
%TO.P,U4,13,USB_D-*%
%TO.N,D-*%
X147383200Y-77899600D03*
%TO.P,U4,14,USB_D+*%
%TO.N,D+*%
X147383200Y-79169600D03*
D13*
%TO.P,U4,15,IO3*%
%TO.N,/3*%
X145618200Y-80419600D03*
%TO.P,U4,16,IO46*%
%TO.N,/46*%
X144348200Y-80419600D03*
%TO.P,U4,17,IO9*%
%TO.N,Piezo*%
X143078200Y-80419600D03*
%TO.P,U4,18,IO10*%
%TO.N,/10*%
X141808200Y-80419600D03*
%TO.P,U4,19,IO11*%
%TO.N,/11*%
X140538200Y-80419600D03*
%TO.P,U4,20,IO12*%
%TO.N,/12*%
X139268200Y-80419600D03*
%TO.P,U4,21,IO13*%
%TO.N,/13*%
X137998200Y-80419600D03*
%TO.P,U4,22,IO14*%
%TO.N,/14*%
X136728200Y-80419600D03*
%TO.P,U4,23,IO21*%
%TO.N,/21*%
X135458200Y-80419600D03*
%TO.P,U4,24,IO47*%
%TO.N,/47*%
X134188200Y-80419600D03*
%TO.P,U4,25,IO48*%
%TO.N,/48*%
X132918200Y-80419600D03*
%TO.P,U4,26,IO45*%
%TO.N,/45*%
X131648200Y-80419600D03*
D12*
%TO.P,U4,27,IO0*%
%TO.N,/0*%
X129883200Y-79169600D03*
%TO.P,U4,28,IO35*%
%TO.N,/35*%
X129883200Y-77899600D03*
%TO.P,U4,29,IO36*%
%TO.N,/36*%
X129883200Y-76629600D03*
%TO.P,U4,30,IO37*%
%TO.N,/37*%
X129883200Y-75359600D03*
%TO.P,U4,31,IO38*%
%TO.N,/38*%
X129883200Y-74089600D03*
%TO.P,U4,32,IO39*%
%TO.N,/39*%
X129883200Y-72819600D03*
%TO.P,U4,33,IO40*%
%TO.N,/40*%
X129883200Y-71549600D03*
%TO.P,U4,34,IO41*%
%TO.N,/41*%
X129883200Y-70279600D03*
%TO.P,U4,35,IO42*%
%TO.N,/42*%
X129883200Y-69009600D03*
%TO.P,U4,36,RXD0*%
%TO.N,/RXD0*%
X129883200Y-67739600D03*
%TO.P,U4,37,TXD0*%
%TO.N,/TXD0*%
X129883200Y-66469600D03*
%TO.P,U4,38,IO2*%
%TO.N,/2*%
X129883200Y-65199600D03*
%TO.P,U4,39,IO1*%
%TO.N,/1*%
X129883200Y-63929600D03*
%TO.P,U4,40,GND*%
%TO.N,GND*%
X129883200Y-62659600D03*
%TD*%
D14*
%TO.N,+5V*%
X137195600Y-75722900D03*
X141681200Y-76555600D03*
X133553200Y-73549400D03*
%TO.N,GND*%
X136245600Y-76758800D03*
X146964400Y-62179200D03*
X138795200Y-71994616D03*
X140716000Y-77063600D03*
X144068800Y-76200000D03*
X148844000Y-75336400D03*
X146456400Y-81991200D03*
X148844000Y-76657200D03*
X137312400Y-69697600D03*
X142748000Y-70866000D03*
%TO.N,+3V3*%
X147383200Y-63929600D03*
%TO.N,/0*%
X128056600Y-78486000D03*
%TO.N,/EN*%
X144729200Y-65227200D03*
%TO.N,Piezo*%
X145643600Y-81991200D03*
%TO.N,D-*%
X139395200Y-71323200D03*
%TO.N,D+*%
X138153600Y-71323200D03*
%TO.N,SCL*%
X147383200Y-76629600D03*
%TO.N,SDA*%
X147383200Y-75359600D03*
%TD*%
D15*
%TO.N,D-*%
X141215564Y-74023220D02*
X141190097Y-74048686D01*
X140765834Y-73963834D02*
X140436962Y-73634962D01*
X139395200Y-72593200D02*
X139395200Y-71323200D01*
X140436962Y-73634962D02*
X139395200Y-72593200D01*
X144701600Y-77899600D02*
X141614363Y-74812363D01*
X141614363Y-74472951D02*
X141639829Y-74447484D01*
X140850686Y-74048686D02*
X140765834Y-73963834D01*
X141639829Y-74108073D02*
X141554976Y-74023220D01*
X147383200Y-77899600D02*
X144701600Y-77899600D01*
X141639829Y-74447484D02*
G75*
G03*
X141639808Y-74108094I-169729J169684D01*
G01*
X141614363Y-74812363D02*
G75*
G02*
X141614406Y-74472994I169737J169663D01*
G01*
X141554976Y-74023220D02*
G75*
G03*
X141215564Y-74023220I-169706J-169704D01*
G01*
X141190097Y-74048686D02*
G75*
G02*
X140850685Y-74048687I-169706J169703D01*
G01*
%TO.N,D+*%
X138133800Y-71738200D02*
X138133800Y-71343000D01*
X138133800Y-71343000D02*
X138153600Y-71323200D01*
X138933754Y-72595616D02*
X138546257Y-72595616D01*
X138194200Y-72243559D02*
X138194200Y-71798600D01*
X145507738Y-79169600D02*
X138933754Y-72595616D01*
X138546257Y-72595616D02*
X138194200Y-72243559D01*
X147383200Y-79169600D02*
X145507738Y-79169600D01*
X138194200Y-71798600D02*
X138133800Y-71738200D01*
D16*
%TO.N,+5V*%
X135022100Y-73549400D02*
X133553200Y-73549400D01*
D15*
X137774300Y-76301600D02*
X141427200Y-76301600D01*
X137195600Y-75722900D02*
X137195600Y-75880000D01*
D16*
X137195600Y-75722900D02*
X135022100Y-73549400D01*
D15*
X137195600Y-75722900D02*
X137774300Y-76301600D01*
X141427200Y-76301600D02*
X141681200Y-76555600D01*
%TO.N,/0*%
X128056600Y-78486000D02*
X128740200Y-79169600D01*
X128740200Y-79169600D02*
X129883200Y-79169600D01*
%TO.N,/EN*%
X144756800Y-65199600D02*
X147383200Y-65199600D01*
X144729200Y-65227200D02*
X144756800Y-65199600D01*
%TO.N,Piezo*%
X145618200Y-81965800D02*
X145643600Y-81991200D01*
D16*
X143078200Y-80419600D02*
X143078200Y-81369600D01*
X143699800Y-81991200D02*
X145643600Y-81991200D01*
X143078200Y-81369600D02*
X143699800Y-81991200D01*
%TD*%
%TA.AperFunction,Conductor*%
%TO.N,GND*%
G36*
X128731192Y-61690605D02*
G01*
X128776947Y-61743409D01*
X128786891Y-61812567D01*
X128763419Y-61869231D01*
X128689849Y-61967506D01*
X128689845Y-61967513D01*
X128639603Y-62102220D01*
X128639601Y-62102227D01*
X128633200Y-62161755D01*
X128633200Y-62409600D01*
X131133200Y-62409600D01*
X131133200Y-62161772D01*
X131133199Y-62161755D01*
X131126798Y-62102227D01*
X131126796Y-62102220D01*
X131076554Y-61967513D01*
X131076550Y-61967506D01*
X131002981Y-61869231D01*
X130978563Y-61803767D01*
X130993414Y-61735494D01*
X131042819Y-61686088D01*
X131102247Y-61670920D01*
X146164153Y-61670920D01*
X146231192Y-61690605D01*
X146276947Y-61743409D01*
X146286891Y-61812567D01*
X146263419Y-61869231D01*
X146189849Y-61967506D01*
X146189845Y-61967513D01*
X146139603Y-62102220D01*
X146139601Y-62102227D01*
X146133200Y-62161755D01*
X146133200Y-62409600D01*
X148633200Y-62409600D01*
X148633200Y-62161772D01*
X148633199Y-62161755D01*
X148626798Y-62102227D01*
X148626796Y-62102220D01*
X148576554Y-61967513D01*
X148576550Y-61967506D01*
X148502981Y-61869231D01*
X148478563Y-61803767D01*
X148493414Y-61735494D01*
X148542819Y-61686088D01*
X148602247Y-61670920D01*
X150244091Y-61670920D01*
X150244098Y-61670922D01*
X150303036Y-61670920D01*
X150316895Y-61671697D01*
X150410823Y-61682279D01*
X150437879Y-61688455D01*
X150520473Y-61717355D01*
X150545476Y-61729395D01*
X150619569Y-61775950D01*
X150641274Y-61793260D01*
X150703139Y-61855125D01*
X150720449Y-61876831D01*
X150767002Y-61950920D01*
X150779047Y-61975932D01*
X150807943Y-62058516D01*
X150814120Y-62085582D01*
X150824700Y-62179485D01*
X150825479Y-62193368D01*
X150825478Y-62256685D01*
X150825479Y-62256714D01*
X150825479Y-85575694D01*
X150825478Y-85575698D01*
X150825479Y-85608781D01*
X150825479Y-85634630D01*
X150824699Y-85648513D01*
X150814119Y-85742417D01*
X150807941Y-85769486D01*
X150779047Y-85852066D01*
X150766999Y-85877086D01*
X150720452Y-85951165D01*
X150703139Y-85972874D01*
X150641274Y-86034739D01*
X150619563Y-86052052D01*
X150545482Y-86098600D01*
X150520467Y-86110647D01*
X150437883Y-86139543D01*
X150410815Y-86145721D01*
X150316912Y-86156300D01*
X150303031Y-86157079D01*
X150252307Y-86157078D01*
X150244098Y-86157078D01*
X150244097Y-86157078D01*
X150235474Y-86157078D01*
X150235446Y-86157080D01*
X127030952Y-86157080D01*
X127022308Y-86157079D01*
X127022302Y-86157078D01*
X126980838Y-86157079D01*
X126963364Y-86157079D01*
X126963363Y-86157078D01*
X126949488Y-86156300D01*
X126855582Y-86145720D01*
X126828516Y-86139543D01*
X126787224Y-86125095D01*
X126745930Y-86110646D01*
X126720920Y-86098602D01*
X126646831Y-86052049D01*
X126625125Y-86034739D01*
X126563260Y-85972874D01*
X126545950Y-85951169D01*
X126499395Y-85877076D01*
X126487355Y-85852073D01*
X126458455Y-85769479D01*
X126452279Y-85742423D01*
X126441697Y-85648495D01*
X126440920Y-85634629D01*
X126440922Y-85575698D01*
X126440920Y-85575693D01*
X126440921Y-85568122D01*
X126440919Y-85568072D01*
X126440919Y-78407153D01*
X127256100Y-78407153D01*
X127256100Y-78564846D01*
X127286861Y-78719489D01*
X127286864Y-78719501D01*
X127347202Y-78865172D01*
X127347209Y-78865185D01*
X127434810Y-78996288D01*
X127434813Y-78996292D01*
X127546307Y-79107786D01*
X127546311Y-79107789D01*
X127677414Y-79195390D01*
X127677427Y-79195397D01*
X127823098Y-79255735D01*
X127823103Y-79255737D01*
X127887747Y-79268595D01*
X127978449Y-79286638D01*
X128040360Y-79319023D01*
X128041939Y-79320574D01*
X128255339Y-79533974D01*
X128255349Y-79533985D01*
X128259679Y-79538315D01*
X128259680Y-79538316D01*
X128371484Y-79650120D01*
X128371486Y-79650121D01*
X128371490Y-79650124D01*
X128504787Y-79727082D01*
X128508416Y-79729177D01*
X128592739Y-79751771D01*
X128652398Y-79788134D01*
X128676827Y-79828211D01*
X128689403Y-79861930D01*
X128689406Y-79861935D01*
X128775652Y-79977144D01*
X128775655Y-79977147D01*
X128890864Y-80063393D01*
X128890871Y-80063397D01*
X129025717Y-80113691D01*
X129025716Y-80113691D01*
X129032644Y-80114435D01*
X129085327Y-80120100D01*
X130573700Y-80120099D01*
X130640739Y-80139784D01*
X130686494Y-80192587D01*
X130697700Y-80244099D01*
X130697700Y-81217470D01*
X130697701Y-81217476D01*
X130704108Y-81277083D01*
X130754402Y-81411928D01*
X130754406Y-81411935D01*
X130840652Y-81527144D01*
X130840655Y-81527147D01*
X130955864Y-81613393D01*
X130955871Y-81613397D01*
X131090717Y-81663691D01*
X131090716Y-81663691D01*
X131097644Y-81664435D01*
X131150327Y-81670100D01*
X132146072Y-81670099D01*
X132205683Y-81663691D01*
X132239867Y-81650940D01*
X132309558Y-81645957D01*
X132326527Y-81650938D01*
X132360717Y-81663691D01*
X132420327Y-81670100D01*
X133416072Y-81670099D01*
X133475683Y-81663691D01*
X133509867Y-81650940D01*
X133579558Y-81645957D01*
X133596527Y-81650938D01*
X133630717Y-81663691D01*
X133690327Y-81670100D01*
X134686072Y-81670099D01*
X134745683Y-81663691D01*
X134779867Y-81650940D01*
X134849558Y-81645957D01*
X134866527Y-81650938D01*
X134900717Y-81663691D01*
X134960327Y-81670100D01*
X135956072Y-81670099D01*
X136015683Y-81663691D01*
X136049867Y-81650940D01*
X136119558Y-81645957D01*
X136136527Y-81650938D01*
X136170717Y-81663691D01*
X136230327Y-81670100D01*
X137226072Y-81670099D01*
X137285683Y-81663691D01*
X137319867Y-81650940D01*
X137389558Y-81645957D01*
X137406527Y-81650938D01*
X137440717Y-81663691D01*
X137500327Y-81670100D01*
X138496072Y-81670099D01*
X138555683Y-81663691D01*
X138589867Y-81650940D01*
X138659558Y-81645957D01*
X138676527Y-81650938D01*
X138710717Y-81663691D01*
X138770327Y-81670100D01*
X139766072Y-81670099D01*
X139825683Y-81663691D01*
X139859867Y-81650940D01*
X139929558Y-81645957D01*
X139946527Y-81650938D01*
X139980717Y-81663691D01*
X140040327Y-81670100D01*
X141036072Y-81670099D01*
X141095683Y-81663691D01*
X141129867Y-81650940D01*
X141199558Y-81645957D01*
X141216527Y-81650938D01*
X141250717Y-81663691D01*
X141310327Y-81670100D01*
X142306072Y-81670099D01*
X142365683Y-81663691D01*
X142375153Y-81660158D01*
X142444842Y-81655170D01*
X142506167Y-81688651D01*
X142521592Y-81707445D01*
X142555177Y-81757710D01*
X142572926Y-81784273D01*
X142572927Y-81784274D01*
X143194524Y-82405869D01*
X143285131Y-82496476D01*
X143285132Y-82496477D01*
X143391666Y-82567661D01*
X143391672Y-82567664D01*
X143391673Y-82567665D01*
X143510056Y-82616701D01*
X143510060Y-82616701D01*
X143510061Y-82616702D01*
X143635728Y-82641700D01*
X143635731Y-82641700D01*
X145138665Y-82641700D01*
X145205704Y-82661385D01*
X145207509Y-82662566D01*
X145264421Y-82700594D01*
X145264423Y-82700595D01*
X145264427Y-82700597D01*
X145410098Y-82760935D01*
X145410103Y-82760937D01*
X145564753Y-82791699D01*
X145564756Y-82791700D01*
X145564758Y-82791700D01*
X145722444Y-82791700D01*
X145722445Y-82791699D01*
X145877097Y-82760937D01*
X146022779Y-82700594D01*
X146153889Y-82612989D01*
X146265389Y-82501489D01*
X146352994Y-82370379D01*
X146413337Y-82224697D01*
X146444100Y-82070042D01*
X146444100Y-81912358D01*
X146444100Y-81912355D01*
X146444099Y-81912353D01*
X146413338Y-81757710D01*
X146413337Y-81757703D01*
X146380240Y-81677798D01*
X146372771Y-81608329D01*
X146404047Y-81545850D01*
X146420489Y-81531081D01*
X146425746Y-81527146D01*
X146511996Y-81411931D01*
X146562291Y-81277083D01*
X146568700Y-81217473D01*
X146568699Y-80244098D01*
X146588383Y-80177060D01*
X146641187Y-80131305D01*
X146692694Y-80120099D01*
X148181072Y-80120099D01*
X148240683Y-80113691D01*
X148375531Y-80063396D01*
X148490746Y-79977146D01*
X148576996Y-79861931D01*
X148627291Y-79727083D01*
X148633700Y-79667473D01*
X148633699Y-78671728D01*
X148627291Y-78612117D01*
X148614540Y-78577932D01*
X148609557Y-78508242D01*
X148614538Y-78491272D01*
X148627291Y-78457083D01*
X148633700Y-78397473D01*
X148633699Y-77401728D01*
X148627291Y-77342117D01*
X148614540Y-77307932D01*
X148609557Y-77238242D01*
X148614540Y-77221269D01*
X148627291Y-77187083D01*
X148633700Y-77127473D01*
X148633699Y-76131728D01*
X148627291Y-76072117D01*
X148614540Y-76037932D01*
X148609557Y-75968242D01*
X148614540Y-75951269D01*
X148627291Y-75917083D01*
X148633700Y-75857473D01*
X148633699Y-74861728D01*
X148627291Y-74802117D01*
X148614540Y-74767932D01*
X148609557Y-74698242D01*
X148614540Y-74681269D01*
X148627291Y-74647083D01*
X148633700Y-74587473D01*
X148633699Y-73591728D01*
X148627291Y-73532117D01*
X148614540Y-73497932D01*
X148609557Y-73428242D01*
X148614540Y-73411269D01*
X148627291Y-73377083D01*
X148633700Y-73317473D01*
X148633699Y-72321728D01*
X148627291Y-72262117D01*
X148614540Y-72227932D01*
X148609557Y-72158242D01*
X148614540Y-72141269D01*
X148627291Y-72107083D01*
X148633700Y-72047473D01*
X148633699Y-71051728D01*
X148627291Y-70992117D01*
X148614540Y-70957932D01*
X148609557Y-70888242D01*
X148614540Y-70871269D01*
X148627291Y-70837083D01*
X148633700Y-70777473D01*
X148633699Y-69781728D01*
X148627291Y-69722117D01*
X148614540Y-69687932D01*
X148609557Y-69618242D01*
X148614540Y-69601269D01*
X148627291Y-69567083D01*
X148633700Y-69507473D01*
X148633699Y-68511728D01*
X148627291Y-68452117D01*
X148614540Y-68417932D01*
X148609557Y-68348242D01*
X148614540Y-68331269D01*
X148627291Y-68297083D01*
X148633700Y-68237473D01*
X148633699Y-67241728D01*
X148627291Y-67182117D01*
X148614540Y-67147932D01*
X148609557Y-67078242D01*
X148614540Y-67061269D01*
X148627291Y-67027083D01*
X148633700Y-66967473D01*
X148633699Y-65971728D01*
X148627291Y-65912117D01*
X148614540Y-65877932D01*
X148609557Y-65808242D01*
X148614540Y-65791269D01*
X148627291Y-65757083D01*
X148633700Y-65697473D01*
X148633699Y-64701728D01*
X148627291Y-64642117D01*
X148614540Y-64607932D01*
X148609557Y-64538242D01*
X148614540Y-64521269D01*
X148627291Y-64487083D01*
X148633700Y-64427473D01*
X148633699Y-63431728D01*
X148627291Y-63372117D01*
X148614273Y-63337216D01*
X148609290Y-63267526D01*
X148614275Y-63250549D01*
X148626797Y-63216975D01*
X148626798Y-63216972D01*
X148633199Y-63157444D01*
X148633200Y-63157427D01*
X148633200Y-62909600D01*
X146133200Y-62909600D01*
X146133200Y-63157444D01*
X146139601Y-63216972D01*
X146139603Y-63216979D01*
X146152125Y-63250552D01*
X146157109Y-63320243D01*
X146152125Y-63337217D01*
X146139109Y-63372114D01*
X146139108Y-63372116D01*
X146132701Y-63431716D01*
X146132701Y-63431723D01*
X146132700Y-63431735D01*
X146132700Y-64427470D01*
X146132701Y-64427476D01*
X146136396Y-64461847D01*
X146123989Y-64530606D01*
X146076378Y-64581743D01*
X146013106Y-64599100D01*
X145267659Y-64599100D01*
X145200620Y-64579415D01*
X145198768Y-64578202D01*
X145108385Y-64517809D01*
X145108372Y-64517802D01*
X144962701Y-64457464D01*
X144962689Y-64457461D01*
X144808045Y-64426700D01*
X144808042Y-64426700D01*
X144650358Y-64426700D01*
X144650355Y-64426700D01*
X144495710Y-64457461D01*
X144495698Y-64457464D01*
X144350027Y-64517802D01*
X144350014Y-64517809D01*
X144218911Y-64605410D01*
X144218907Y-64605413D01*
X144107413Y-64716907D01*
X144107410Y-64716911D01*
X144019809Y-64848014D01*
X144019802Y-64848027D01*
X143959464Y-64993698D01*
X143959461Y-64993710D01*
X143928700Y-65148353D01*
X143928700Y-65306046D01*
X143959461Y-65460689D01*
X143959464Y-65460701D01*
X144019802Y-65606372D01*
X144019809Y-65606385D01*
X144107410Y-65737488D01*
X144107413Y-65737492D01*
X144218907Y-65848986D01*
X144218911Y-65848989D01*
X144350014Y-65936590D01*
X144350027Y-65936597D01*
X144495698Y-65996935D01*
X144495703Y-65996937D01*
X144650353Y-66027699D01*
X144650356Y-66027700D01*
X144650358Y-66027700D01*
X144808044Y-66027700D01*
X144808045Y-66027699D01*
X144962697Y-65996937D01*
X145108379Y-65936594D01*
X145239489Y-65848989D01*
X145239492Y-65848986D01*
X145252060Y-65836419D01*
X145313383Y-65802934D01*
X145339741Y-65800100D01*
X146013106Y-65800100D01*
X146080145Y-65819785D01*
X146125900Y-65872589D01*
X146136395Y-65937352D01*
X146132700Y-65971727D01*
X146132700Y-65971728D01*
X146132700Y-65971732D01*
X146132700Y-66967470D01*
X146132701Y-66967476D01*
X146139108Y-67027081D01*
X146151859Y-67061269D01*
X146156842Y-67130961D01*
X146151859Y-67147931D01*
X146139108Y-67182118D01*
X146135201Y-67218463D01*
X146132701Y-67241723D01*
X146132700Y-67241735D01*
X146132700Y-68237470D01*
X146132701Y-68237476D01*
X146139108Y-68297081D01*
X146151859Y-68331269D01*
X146156842Y-68400961D01*
X146151859Y-68417931D01*
X146139108Y-68452118D01*
X146132701Y-68511716D01*
X146132701Y-68511723D01*
X146132700Y-68511735D01*
X146132700Y-69507470D01*
X146132701Y-69507476D01*
X146139108Y-69567081D01*
X146151859Y-69601269D01*
X146156842Y-69670961D01*
X146151859Y-69687931D01*
X146139108Y-69722118D01*
X146132701Y-69781716D01*
X146132701Y-69781723D01*
X146132700Y-69781735D01*
X146132700Y-70777470D01*
X146132701Y-70777476D01*
X146139108Y-70837081D01*
X146151859Y-70871269D01*
X146156842Y-70940961D01*
X146151859Y-70957931D01*
X146139108Y-70992118D01*
X146132701Y-71051716D01*
X146132701Y-71051723D01*
X146132700Y-71051735D01*
X146132700Y-72047470D01*
X146132701Y-72047476D01*
X146139108Y-72107081D01*
X146151859Y-72141269D01*
X146156842Y-72210961D01*
X146151859Y-72227931D01*
X146139108Y-72262118D01*
X146132701Y-72321716D01*
X146132701Y-72321723D01*
X146132700Y-72321735D01*
X146132700Y-73317470D01*
X146132701Y-73317476D01*
X146139108Y-73377081D01*
X146151859Y-73411269D01*
X146156842Y-73480961D01*
X146151859Y-73497931D01*
X146139108Y-73532118D01*
X146132701Y-73591716D01*
X146132701Y-73591723D01*
X146132700Y-73591735D01*
X146132700Y-74587470D01*
X146132701Y-74587476D01*
X146139108Y-74647081D01*
X146151859Y-74681269D01*
X146156842Y-74750961D01*
X146151859Y-74767931D01*
X146139108Y-74802118D01*
X146132701Y-74861716D01*
X146132701Y-74861723D01*
X146132700Y-74861735D01*
X146132700Y-75857470D01*
X146132701Y-75857476D01*
X146139108Y-75917081D01*
X146151859Y-75951269D01*
X146156842Y-76020961D01*
X146151859Y-76037931D01*
X146139108Y-76072118D01*
X146132701Y-76131716D01*
X146132701Y-76131723D01*
X146132700Y-76131735D01*
X146132700Y-77127470D01*
X146132701Y-77127476D01*
X146136396Y-77161847D01*
X146123989Y-77230606D01*
X146076378Y-77281743D01*
X146013106Y-77299100D01*
X145001697Y-77299100D01*
X144934658Y-77279415D01*
X144914016Y-77262781D01*
X142306414Y-74655179D01*
X142272929Y-74593856D01*
X142277564Y-74529035D01*
X142276583Y-74528738D01*
X142277895Y-74524409D01*
X142277913Y-74524164D01*
X142278159Y-74523537D01*
X142278351Y-74522906D01*
X142310636Y-74360530D01*
X142310637Y-74360525D01*
X142310627Y-74194969D01*
X142283712Y-74059692D01*
X142278322Y-74032599D01*
X142278321Y-74032597D01*
X142214961Y-73879643D01*
X142122983Y-73741993D01*
X142122982Y-73741991D01*
X142064449Y-73683458D01*
X142012891Y-73631900D01*
X141953504Y-73572513D01*
X141953503Y-73572511D01*
X141921062Y-73540069D01*
X141921056Y-73540064D01*
X141783400Y-73448086D01*
X141783396Y-73448084D01*
X141630436Y-73384725D01*
X141630428Y-73384723D01*
X141468056Y-73352425D01*
X141468053Y-73352425D01*
X141302487Y-73352425D01*
X141302484Y-73352425D01*
X141140111Y-73384723D01*
X141134277Y-73386493D01*
X141133680Y-73384527D01*
X141073522Y-73390986D01*
X141011047Y-73359702D01*
X141007876Y-73356641D01*
X140032019Y-72380784D01*
X139998534Y-72319461D01*
X139995700Y-72293103D01*
X139995700Y-71902965D01*
X140015385Y-71835926D01*
X140016598Y-71834074D01*
X140104590Y-71702385D01*
X140104590Y-71702384D01*
X140104594Y-71702379D01*
X140164937Y-71556697D01*
X140195700Y-71402042D01*
X140195700Y-71244358D01*
X140195700Y-71244355D01*
X140195699Y-71244353D01*
X140164938Y-71089710D01*
X140164937Y-71089703D01*
X140149208Y-71051729D01*
X140104597Y-70944027D01*
X140104590Y-70944014D01*
X140016989Y-70812911D01*
X140016986Y-70812907D01*
X139905492Y-70701413D01*
X139905488Y-70701410D01*
X139774385Y-70613809D01*
X139774372Y-70613802D01*
X139628701Y-70553464D01*
X139628689Y-70553461D01*
X139474045Y-70522700D01*
X139474042Y-70522700D01*
X139316358Y-70522700D01*
X139316355Y-70522700D01*
X139161710Y-70553461D01*
X139161698Y-70553464D01*
X139016027Y-70613802D01*
X139016014Y-70613809D01*
X138884911Y-70701410D01*
X138884907Y-70701413D01*
X138862081Y-70724240D01*
X138800758Y-70757725D01*
X138731066Y-70752741D01*
X138686719Y-70724240D01*
X138663892Y-70701413D01*
X138663888Y-70701410D01*
X138532785Y-70613809D01*
X138532772Y-70613802D01*
X138387101Y-70553464D01*
X138387089Y-70553461D01*
X138232445Y-70522700D01*
X138232442Y-70522700D01*
X138074758Y-70522700D01*
X138074755Y-70522700D01*
X137920110Y-70553461D01*
X137920098Y-70553464D01*
X137774427Y-70613802D01*
X137774414Y-70613809D01*
X137643311Y-70701410D01*
X137643307Y-70701413D01*
X137531813Y-70812907D01*
X137531810Y-70812911D01*
X137444209Y-70944014D01*
X137444202Y-70944027D01*
X137383864Y-71089698D01*
X137383861Y-71089710D01*
X137353100Y-71244353D01*
X137353100Y-71402046D01*
X137383861Y-71556689D01*
X137383864Y-71556701D01*
X137444202Y-71702372D01*
X137444209Y-71702385D01*
X137530182Y-71831051D01*
X137530249Y-71831191D01*
X137530309Y-71831242D01*
X137530949Y-71832658D01*
X137545483Y-71863108D01*
X137546217Y-71865469D01*
X137574223Y-71969985D01*
X137576368Y-71973700D01*
X137583998Y-71986915D01*
X137588103Y-72000110D01*
X137588374Y-72017081D01*
X137593700Y-72036944D01*
X137593700Y-72156889D01*
X137593699Y-72156907D01*
X137593699Y-72322613D01*
X137593698Y-72322613D01*
X137634624Y-72475346D01*
X137648915Y-72500098D01*
X137648916Y-72500100D01*
X137713677Y-72612271D01*
X137713679Y-72612274D01*
X137713680Y-72612275D01*
X137825484Y-72724079D01*
X137825485Y-72724080D01*
X138177541Y-73076136D01*
X138314472Y-73155193D01*
X138467200Y-73196117D01*
X138467203Y-73196117D01*
X138632911Y-73196117D01*
X138632927Y-73196116D01*
X138633657Y-73196116D01*
X138700696Y-73215801D01*
X138721338Y-73232435D01*
X140978322Y-75489419D01*
X141011807Y-75550742D01*
X141006823Y-75620434D01*
X140964951Y-75676367D01*
X140899487Y-75700784D01*
X140890641Y-75701100D01*
X138109211Y-75701100D01*
X138042172Y-75681415D01*
X137996417Y-75628611D01*
X137987594Y-75601292D01*
X137965338Y-75489408D01*
X137965337Y-75489407D01*
X137965337Y-75489403D01*
X137965335Y-75489398D01*
X137904997Y-75343727D01*
X137904990Y-75343714D01*
X137817389Y-75212611D01*
X137817386Y-75212607D01*
X137705892Y-75101113D01*
X137705888Y-75101110D01*
X137574785Y-75013509D01*
X137574772Y-75013502D01*
X137429099Y-74953163D01*
X137429091Y-74953161D01*
X137362018Y-74939819D01*
X137300107Y-74907434D01*
X137298529Y-74905883D01*
X135436774Y-73044127D01*
X135436773Y-73044126D01*
X135436769Y-73044123D01*
X135330227Y-72972935D01*
X135211844Y-72923899D01*
X135211838Y-72923897D01*
X135086171Y-72898900D01*
X135086169Y-72898900D01*
X134058135Y-72898900D01*
X133991096Y-72879215D01*
X133989290Y-72878033D01*
X133932379Y-72840006D01*
X133932372Y-72840002D01*
X133786701Y-72779664D01*
X133786689Y-72779661D01*
X133632045Y-72748900D01*
X133632042Y-72748900D01*
X133474358Y-72748900D01*
X133474355Y-72748900D01*
X133319710Y-72779661D01*
X133319698Y-72779664D01*
X133174027Y-72840002D01*
X133174014Y-72840009D01*
X133042911Y-72927610D01*
X133042907Y-72927613D01*
X132931413Y-73039107D01*
X132931410Y-73039111D01*
X132843809Y-73170214D01*
X132843802Y-73170227D01*
X132783464Y-73315898D01*
X132783461Y-73315910D01*
X132752700Y-73470553D01*
X132752700Y-73628246D01*
X132783461Y-73782889D01*
X132783464Y-73782901D01*
X132843802Y-73928572D01*
X132843809Y-73928585D01*
X132931410Y-74059688D01*
X132931413Y-74059692D01*
X133042907Y-74171186D01*
X133042911Y-74171189D01*
X133174014Y-74258790D01*
X133174027Y-74258797D01*
X133319698Y-74319135D01*
X133319703Y-74319137D01*
X133474353Y-74349899D01*
X133474356Y-74349900D01*
X133474358Y-74349900D01*
X133632044Y-74349900D01*
X133632045Y-74349899D01*
X133786697Y-74319137D01*
X133932379Y-74258794D01*
X133989244Y-74220797D01*
X134055921Y-74199920D01*
X134058135Y-74199900D01*
X134701292Y-74199900D01*
X134768331Y-74219585D01*
X134788973Y-74236219D01*
X136378583Y-75825829D01*
X136412068Y-75887152D01*
X136412519Y-75889318D01*
X136425861Y-75956391D01*
X136425863Y-75956399D01*
X136486202Y-76102072D01*
X136486209Y-76102085D01*
X136573810Y-76233188D01*
X136573813Y-76233192D01*
X136685307Y-76344686D01*
X136685311Y-76344689D01*
X136816414Y-76432290D01*
X136816427Y-76432297D01*
X136962098Y-76492635D01*
X136962103Y-76492637D01*
X137026747Y-76505495D01*
X137117449Y-76523538D01*
X137134205Y-76532302D01*
X137152685Y-76536323D01*
X137177723Y-76555067D01*
X137179360Y-76555923D01*
X137180939Y-76557474D01*
X137289439Y-76665974D01*
X137289449Y-76665985D01*
X137293779Y-76670315D01*
X137293780Y-76670316D01*
X137405584Y-76782120D01*
X137405586Y-76782121D01*
X137405590Y-76782124D01*
X137542509Y-76861173D01*
X137542516Y-76861177D01*
X137654319Y-76891134D01*
X137695242Y-76902100D01*
X137695243Y-76902100D01*
X140883691Y-76902100D01*
X140950730Y-76921785D01*
X140986793Y-76957209D01*
X141059410Y-77065888D01*
X141059413Y-77065892D01*
X141170907Y-77177386D01*
X141170911Y-77177389D01*
X141302014Y-77264990D01*
X141302027Y-77264997D01*
X141405688Y-77307934D01*
X141447703Y-77325337D01*
X141602353Y-77356099D01*
X141602356Y-77356100D01*
X141602358Y-77356100D01*
X141760044Y-77356100D01*
X141760045Y-77356099D01*
X141914697Y-77325337D01*
X142060379Y-77264994D01*
X142191489Y-77177389D01*
X142302989Y-77065889D01*
X142319903Y-77040574D01*
X142373515Y-76995769D01*
X142442840Y-76987062D01*
X142505868Y-77017216D01*
X142510687Y-77021784D01*
X144446322Y-78957419D01*
X144479807Y-79018742D01*
X144474823Y-79088434D01*
X144432951Y-79144367D01*
X144367487Y-79168784D01*
X144358641Y-79169100D01*
X143850329Y-79169100D01*
X143850323Y-79169101D01*
X143790718Y-79175508D01*
X143756531Y-79188259D01*
X143686839Y-79193242D01*
X143669869Y-79188259D01*
X143635680Y-79175508D01*
X143635682Y-79175508D01*
X143576083Y-79169101D01*
X143576081Y-79169100D01*
X143576073Y-79169100D01*
X143576064Y-79169100D01*
X142580329Y-79169100D01*
X142580323Y-79169101D01*
X142520718Y-79175508D01*
X142486531Y-79188259D01*
X142416839Y-79193242D01*
X142399869Y-79188259D01*
X142365680Y-79175508D01*
X142365682Y-79175508D01*
X142306083Y-79169101D01*
X142306081Y-79169100D01*
X142306073Y-79169100D01*
X142306064Y-79169100D01*
X141310329Y-79169100D01*
X141310323Y-79169101D01*
X141250718Y-79175508D01*
X141216531Y-79188259D01*
X141146839Y-79193242D01*
X141129869Y-79188259D01*
X141095680Y-79175508D01*
X141095682Y-79175508D01*
X141036083Y-79169101D01*
X141036081Y-79169100D01*
X141036073Y-79169100D01*
X141036064Y-79169100D01*
X140040329Y-79169100D01*
X140040323Y-79169101D01*
X139980718Y-79175508D01*
X139946531Y-79188259D01*
X139876839Y-79193242D01*
X139859869Y-79188259D01*
X139825680Y-79175508D01*
X139825682Y-79175508D01*
X139766083Y-79169101D01*
X139766081Y-79169100D01*
X139766073Y-79169100D01*
X139766064Y-79169100D01*
X138770329Y-79169100D01*
X138770323Y-79169101D01*
X138710718Y-79175508D01*
X138676531Y-79188259D01*
X138606839Y-79193242D01*
X138589869Y-79188259D01*
X138555680Y-79175508D01*
X138555682Y-79175508D01*
X138496083Y-79169101D01*
X138496081Y-79169100D01*
X138496073Y-79169100D01*
X138496064Y-79169100D01*
X137500329Y-79169100D01*
X137500323Y-79169101D01*
X137440718Y-79175508D01*
X137406531Y-79188259D01*
X137336839Y-79193242D01*
X137319869Y-79188259D01*
X137285680Y-79175508D01*
X137285682Y-79175508D01*
X137226083Y-79169101D01*
X137226081Y-79169100D01*
X137226073Y-79169100D01*
X137226064Y-79169100D01*
X136230329Y-79169100D01*
X136230323Y-79169101D01*
X136170718Y-79175508D01*
X136136531Y-79188259D01*
X136066839Y-79193242D01*
X136049869Y-79188259D01*
X136015680Y-79175508D01*
X136015682Y-79175508D01*
X135956083Y-79169101D01*
X135956081Y-79169100D01*
X135956073Y-79169100D01*
X135956064Y-79169100D01*
X134960329Y-79169100D01*
X134960323Y-79169101D01*
X134900718Y-79175508D01*
X134866531Y-79188259D01*
X134796839Y-79193242D01*
X134779869Y-79188259D01*
X134745680Y-79175508D01*
X134745682Y-79175508D01*
X134686083Y-79169101D01*
X134686081Y-79169100D01*
X134686073Y-79169100D01*
X134686064Y-79169100D01*
X133690329Y-79169100D01*
X133690323Y-79169101D01*
X133630718Y-79175508D01*
X133596531Y-79188259D01*
X133526839Y-79193242D01*
X133509869Y-79188259D01*
X133475680Y-79175508D01*
X133475682Y-79175508D01*
X133416083Y-79169101D01*
X133416081Y-79169100D01*
X133416073Y-79169100D01*
X133416064Y-79169100D01*
X132420329Y-79169100D01*
X132420323Y-79169101D01*
X132360718Y-79175508D01*
X132326531Y-79188259D01*
X132256839Y-79193242D01*
X132239869Y-79188259D01*
X132205680Y-79175508D01*
X132205682Y-79175508D01*
X132146083Y-79169101D01*
X132146081Y-79169100D01*
X132146073Y-79169100D01*
X132146065Y-79169100D01*
X131257699Y-79169100D01*
X131190660Y-79149415D01*
X131144905Y-79096611D01*
X131133699Y-79045100D01*
X131133699Y-78671729D01*
X131133698Y-78671723D01*
X131127291Y-78612118D01*
X131127291Y-78612117D01*
X131114540Y-78577932D01*
X131109557Y-78508242D01*
X131114538Y-78491272D01*
X131127291Y-78457083D01*
X131133700Y-78397473D01*
X131133699Y-77401728D01*
X131127291Y-77342117D01*
X131114540Y-77307932D01*
X131109557Y-77238242D01*
X131114540Y-77221269D01*
X131127291Y-77187083D01*
X131133700Y-77127473D01*
X131133699Y-76131728D01*
X131127291Y-76072117D01*
X131114540Y-76037932D01*
X131109557Y-75968242D01*
X131114540Y-75951269D01*
X131127291Y-75917083D01*
X131133700Y-75857473D01*
X131133699Y-74861728D01*
X131127291Y-74802117D01*
X131114540Y-74767932D01*
X131109557Y-74698242D01*
X131114540Y-74681269D01*
X131127291Y-74647083D01*
X131133700Y-74587473D01*
X131133699Y-73591728D01*
X131127291Y-73532117D01*
X131114540Y-73497932D01*
X131109557Y-73428242D01*
X131114540Y-73411269D01*
X131127291Y-73377083D01*
X131133700Y-73317473D01*
X131133699Y-72321728D01*
X131127291Y-72262117D01*
X131114540Y-72227932D01*
X131109557Y-72158242D01*
X131114540Y-72141269D01*
X131127291Y-72107083D01*
X131133700Y-72047473D01*
X131133699Y-71051728D01*
X131127291Y-70992117D01*
X131114540Y-70957932D01*
X131109557Y-70888242D01*
X131114540Y-70871269D01*
X131127291Y-70837083D01*
X131133700Y-70777473D01*
X131133699Y-69781728D01*
X131127291Y-69722117D01*
X131114540Y-69687932D01*
X131109557Y-69618242D01*
X131114540Y-69601269D01*
X131127291Y-69567083D01*
X131133700Y-69507473D01*
X131133699Y-68511728D01*
X131127291Y-68452117D01*
X131114540Y-68417931D01*
X131107530Y-68360480D01*
X131109253Y-68345444D01*
X131127291Y-68297083D01*
X131133700Y-68237473D01*
X131133699Y-67292104D01*
X133110000Y-67292104D01*
X133110000Y-67690600D01*
X133810000Y-67690600D01*
X133810000Y-68190600D01*
X133110000Y-68190600D01*
X133110000Y-68589095D01*
X133148427Y-68782281D01*
X133148430Y-68782293D01*
X133223807Y-68964271D01*
X133223814Y-68964284D01*
X133333248Y-69128062D01*
X133333251Y-69128066D01*
X133472533Y-69267348D01*
X133472537Y-69267351D01*
X133636315Y-69376785D01*
X133636328Y-69376792D01*
X133818308Y-69452169D01*
X133860000Y-69460462D01*
X133860000Y-68657588D01*
X133869940Y-68674805D01*
X133925795Y-68730660D01*
X133994204Y-68770156D01*
X134070504Y-68790600D01*
X134149496Y-68790600D01*
X134225796Y-68770156D01*
X134294205Y-68730660D01*
X134350060Y-68674805D01*
X134360000Y-68657588D01*
X134360000Y-69460462D01*
X134401690Y-69452169D01*
X134401692Y-69452169D01*
X134583671Y-69376792D01*
X134583684Y-69376785D01*
X134747462Y-69267351D01*
X134747466Y-69267348D01*
X134886748Y-69128066D01*
X134886751Y-69128062D01*
X134996185Y-68964284D01*
X134996192Y-68964271D01*
X135071569Y-68782293D01*
X135071572Y-68782281D01*
X135109999Y-68589095D01*
X135110000Y-68589092D01*
X135110000Y-68190600D01*
X134410000Y-68190600D01*
X134410000Y-67690600D01*
X134948216Y-67690600D01*
X135015255Y-67710285D01*
X135055602Y-67752599D01*
X135079485Y-67793965D01*
X135186635Y-67901115D01*
X135317865Y-67976881D01*
X135464234Y-68016100D01*
X135464236Y-68016100D01*
X135615764Y-68016100D01*
X135615766Y-68016100D01*
X135762135Y-67976881D01*
X135893365Y-67901115D01*
X136000515Y-67793965D01*
X136076281Y-67662735D01*
X136115500Y-67516366D01*
X136115500Y-67364834D01*
X140744500Y-67364834D01*
X140744500Y-67516365D01*
X140783719Y-67662736D01*
X140799807Y-67690600D01*
X140859485Y-67793965D01*
X140966635Y-67901115D01*
X141097865Y-67976881D01*
X141244234Y-68016100D01*
X141244236Y-68016100D01*
X141395763Y-68016100D01*
X141395766Y-68016100D01*
X141542135Y-67976881D01*
X141673365Y-67901115D01*
X141780515Y-67793965D01*
X141804397Y-67752599D01*
X141854964Y-67704384D01*
X141911784Y-67690600D01*
X142450000Y-67690600D01*
X142450000Y-68190600D01*
X141750000Y-68190600D01*
X141750000Y-68589095D01*
X141788427Y-68782281D01*
X141788430Y-68782293D01*
X141863807Y-68964271D01*
X141863814Y-68964284D01*
X141973248Y-69128062D01*
X141973251Y-69128066D01*
X142112533Y-69267348D01*
X142112537Y-69267351D01*
X142276315Y-69376785D01*
X142276328Y-69376792D01*
X142458308Y-69452169D01*
X142500000Y-69460462D01*
X142500000Y-68657588D01*
X142509940Y-68674805D01*
X142565795Y-68730660D01*
X142634204Y-68770156D01*
X142710504Y-68790600D01*
X142789496Y-68790600D01*
X142865796Y-68770156D01*
X142934205Y-68730660D01*
X142990060Y-68674805D01*
X143000000Y-68657588D01*
X143000000Y-69460462D01*
X143041690Y-69452169D01*
X143041692Y-69452169D01*
X143223671Y-69376792D01*
X143223684Y-69376785D01*
X143387462Y-69267351D01*
X143387466Y-69267348D01*
X143526748Y-69128066D01*
X143526751Y-69128062D01*
X143636185Y-68964284D01*
X143636192Y-68964271D01*
X143711569Y-68782293D01*
X143711572Y-68782281D01*
X143749999Y-68589095D01*
X143750000Y-68589092D01*
X143750000Y-68190600D01*
X143050000Y-68190600D01*
X143050000Y-67690600D01*
X143750000Y-67690600D01*
X143750000Y-67292108D01*
X143749999Y-67292104D01*
X143711572Y-67098918D01*
X143711569Y-67098906D01*
X143636192Y-66916928D01*
X143636185Y-66916915D01*
X143526751Y-66753137D01*
X143526748Y-66753133D01*
X143387466Y-66613851D01*
X143387462Y-66613848D01*
X143223684Y-66504414D01*
X143223671Y-66504407D01*
X143041691Y-66429029D01*
X143041683Y-66429027D01*
X143000000Y-66420735D01*
X143000000Y-67223611D01*
X142990060Y-67206395D01*
X142934205Y-67150540D01*
X142865796Y-67111044D01*
X142789496Y-67090600D01*
X142710504Y-67090600D01*
X142634204Y-67111044D01*
X142565795Y-67150540D01*
X142509940Y-67206395D01*
X142500000Y-67223611D01*
X142500000Y-66420736D01*
X142499999Y-66420735D01*
X142458316Y-66429027D01*
X142458308Y-66429029D01*
X142276328Y-66504407D01*
X142276315Y-66504414D01*
X142112537Y-66613848D01*
X142112533Y-66613851D01*
X141973251Y-66753133D01*
X141973248Y-66753137D01*
X141863814Y-66916915D01*
X141863809Y-66916924D01*
X141859866Y-66926445D01*
X141816023Y-66980847D01*
X141749728Y-67002910D01*
X141682030Y-66985629D01*
X141676597Y-66981951D01*
X141542136Y-66904319D01*
X141468950Y-66884709D01*
X141395766Y-66865100D01*
X141244234Y-66865100D01*
X141097863Y-66904319D01*
X140966635Y-66980085D01*
X140966632Y-66980087D01*
X140859487Y-67087232D01*
X140859485Y-67087235D01*
X140783719Y-67218463D01*
X140744500Y-67364834D01*
X136115500Y-67364834D01*
X136076281Y-67218465D01*
X136000515Y-67087235D01*
X135893365Y-66980085D01*
X135823406Y-66939694D01*
X135762136Y-66904319D01*
X135688950Y-66884709D01*
X135615766Y-66865100D01*
X135464234Y-66865100D01*
X135317863Y-66904319D01*
X135226428Y-66957110D01*
X135186635Y-66980085D01*
X135186633Y-66980086D01*
X135179597Y-66984149D01*
X135178327Y-66981949D01*
X135124995Y-67002560D01*
X135056552Y-66988514D01*
X135006568Y-66939694D01*
X135000131Y-66926438D01*
X134996192Y-66916928D01*
X134996185Y-66916915D01*
X134886751Y-66753137D01*
X134886748Y-66753133D01*
X134747466Y-66613851D01*
X134747462Y-66613848D01*
X134583684Y-66504414D01*
X134583671Y-66504407D01*
X134401691Y-66429029D01*
X134401683Y-66429027D01*
X134360000Y-66420735D01*
X134360000Y-67223611D01*
X134350060Y-67206395D01*
X134294205Y-67150540D01*
X134225796Y-67111044D01*
X134149496Y-67090600D01*
X134070504Y-67090600D01*
X133994204Y-67111044D01*
X133925795Y-67150540D01*
X133869940Y-67206395D01*
X133860000Y-67223611D01*
X133860000Y-66420736D01*
X133859999Y-66420735D01*
X133818316Y-66429027D01*
X133818308Y-66429029D01*
X133636328Y-66504407D01*
X133636315Y-66504414D01*
X133472537Y-66613848D01*
X133472533Y-66613851D01*
X133333251Y-66753133D01*
X133333248Y-66753137D01*
X133223814Y-66916915D01*
X133223807Y-66916928D01*
X133148430Y-67098906D01*
X133148427Y-67098918D01*
X133110000Y-67292104D01*
X131133699Y-67292104D01*
X131133699Y-67241728D01*
X131127291Y-67182117D01*
X131109988Y-67135726D01*
X131108072Y-67122838D01*
X131111157Y-67100619D01*
X131109557Y-67078242D01*
X131114540Y-67061269D01*
X131127291Y-67027083D01*
X131133700Y-66967473D01*
X131133699Y-65971728D01*
X131127291Y-65912117D01*
X131114540Y-65877932D01*
X131109557Y-65808242D01*
X131114540Y-65791269D01*
X131127291Y-65757083D01*
X131133700Y-65697473D01*
X131133699Y-64701728D01*
X131127291Y-64642117D01*
X131114540Y-64607932D01*
X131109557Y-64538242D01*
X131114540Y-64521269D01*
X131127291Y-64487083D01*
X131133700Y-64427473D01*
X131133699Y-63431728D01*
X131127291Y-63372117D01*
X131114273Y-63337216D01*
X131112388Y-63310859D01*
X131106772Y-63285037D01*
X131109609Y-63271994D01*
X131109290Y-63267526D01*
X131110882Y-63262104D01*
X133110000Y-63262104D01*
X133110000Y-63510600D01*
X133810000Y-63510600D01*
X133810000Y-64010600D01*
X133110000Y-64010600D01*
X133110000Y-64259095D01*
X133148427Y-64452281D01*
X133148430Y-64452293D01*
X133223807Y-64634271D01*
X133223814Y-64634284D01*
X133333248Y-64798062D01*
X133333251Y-64798066D01*
X133472533Y-64937348D01*
X133472537Y-64937351D01*
X133636315Y-65046785D01*
X133636328Y-65046792D01*
X133818308Y-65122169D01*
X133860000Y-65130462D01*
X133860000Y-64327588D01*
X133869940Y-64344805D01*
X133925795Y-64400660D01*
X133994204Y-64440156D01*
X134070504Y-64460600D01*
X134149496Y-64460600D01*
X134225796Y-64440156D01*
X134294205Y-64400660D01*
X134350060Y-64344805D01*
X134360000Y-64327588D01*
X134360000Y-65130462D01*
X134401690Y-65122169D01*
X134401692Y-65122169D01*
X134583671Y-65046792D01*
X134583684Y-65046785D01*
X134747462Y-64937351D01*
X134747466Y-64937348D01*
X134886748Y-64798066D01*
X134886751Y-64798062D01*
X134996185Y-64634284D01*
X134996192Y-64634271D01*
X135071569Y-64452293D01*
X135071572Y-64452281D01*
X135109999Y-64259095D01*
X135110000Y-64259092D01*
X135110000Y-64010600D01*
X134410000Y-64010600D01*
X134410000Y-63510600D01*
X135110000Y-63510600D01*
X135110000Y-63262108D01*
X135109999Y-63262104D01*
X141750000Y-63262104D01*
X141750000Y-63510600D01*
X142450000Y-63510600D01*
X142450000Y-64010600D01*
X141750000Y-64010600D01*
X141750000Y-64259095D01*
X141788427Y-64452281D01*
X141788430Y-64452293D01*
X141863807Y-64634271D01*
X141863814Y-64634284D01*
X141973248Y-64798062D01*
X141973251Y-64798066D01*
X142112533Y-64937348D01*
X142112537Y-64937351D01*
X142276315Y-65046785D01*
X142276328Y-65046792D01*
X142458308Y-65122169D01*
X142500000Y-65130462D01*
X142500000Y-64327588D01*
X142509940Y-64344805D01*
X142565795Y-64400660D01*
X142634204Y-64440156D01*
X142710504Y-64460600D01*
X142789496Y-64460600D01*
X142865796Y-64440156D01*
X142934205Y-64400660D01*
X142990060Y-64344805D01*
X143000000Y-64327588D01*
X143000000Y-65130462D01*
X143041690Y-65122169D01*
X143041692Y-65122169D01*
X143223671Y-65046792D01*
X143223684Y-65046785D01*
X143387462Y-64937351D01*
X143387466Y-64937348D01*
X143526748Y-64798066D01*
X143526751Y-64798062D01*
X143636185Y-64634284D01*
X143636192Y-64634271D01*
X143711569Y-64452293D01*
X143711572Y-64452281D01*
X143749999Y-64259095D01*
X143750000Y-64259092D01*
X143750000Y-64010600D01*
X143050000Y-64010600D01*
X143050000Y-63510600D01*
X143750000Y-63510600D01*
X143750000Y-63262108D01*
X143749999Y-63262104D01*
X143711572Y-63068918D01*
X143711569Y-63068906D01*
X143636192Y-62886928D01*
X143636185Y-62886915D01*
X143526751Y-62723137D01*
X143526748Y-62723133D01*
X143387466Y-62583851D01*
X143387462Y-62583848D01*
X143223684Y-62474414D01*
X143223671Y-62474407D01*
X143041691Y-62399029D01*
X143041683Y-62399027D01*
X143000000Y-62390735D01*
X143000000Y-63193611D01*
X142990060Y-63176395D01*
X142934205Y-63120540D01*
X142865796Y-63081044D01*
X142789496Y-63060600D01*
X142710504Y-63060600D01*
X142634204Y-63081044D01*
X142565795Y-63120540D01*
X142509940Y-63176395D01*
X142500000Y-63193611D01*
X142500000Y-62390736D01*
X142499999Y-62390735D01*
X142458316Y-62399027D01*
X142458308Y-62399029D01*
X142276328Y-62474407D01*
X142276315Y-62474414D01*
X142112537Y-62583848D01*
X142112533Y-62583851D01*
X141973251Y-62723133D01*
X141973248Y-62723137D01*
X141863814Y-62886915D01*
X141863807Y-62886928D01*
X141788430Y-63068906D01*
X141788427Y-63068918D01*
X141750000Y-63262104D01*
X135109999Y-63262104D01*
X135071572Y-63068918D01*
X135071569Y-63068906D01*
X134996192Y-62886928D01*
X134996185Y-62886915D01*
X134886751Y-62723137D01*
X134886748Y-62723133D01*
X134747466Y-62583851D01*
X134747462Y-62583848D01*
X134583684Y-62474414D01*
X134583671Y-62474407D01*
X134401691Y-62399029D01*
X134401683Y-62399027D01*
X134360000Y-62390735D01*
X134360000Y-63193611D01*
X134350060Y-63176395D01*
X134294205Y-63120540D01*
X134225796Y-63081044D01*
X134149496Y-63060600D01*
X134070504Y-63060600D01*
X133994204Y-63081044D01*
X133925795Y-63120540D01*
X133869940Y-63176395D01*
X133860000Y-63193611D01*
X133860000Y-62390736D01*
X133859999Y-62390735D01*
X133818316Y-62399027D01*
X133818308Y-62399029D01*
X133636328Y-62474407D01*
X133636315Y-62474414D01*
X133472537Y-62583848D01*
X133472533Y-62583851D01*
X133333251Y-62723133D01*
X133333248Y-62723137D01*
X133223814Y-62886915D01*
X133223807Y-62886928D01*
X133148430Y-63068906D01*
X133148427Y-63068918D01*
X133110000Y-63262104D01*
X131110882Y-63262104D01*
X131114275Y-63250550D01*
X131126797Y-63216975D01*
X131126798Y-63216972D01*
X131133199Y-63157444D01*
X131133200Y-63157427D01*
X131133200Y-62909600D01*
X128633200Y-62909600D01*
X128633200Y-63157444D01*
X128639601Y-63216972D01*
X128639603Y-63216979D01*
X128652125Y-63250552D01*
X128657109Y-63320243D01*
X128652125Y-63337217D01*
X128639109Y-63372114D01*
X128639108Y-63372116D01*
X128632701Y-63431716D01*
X128632701Y-63431723D01*
X128632700Y-63431735D01*
X128632700Y-64427470D01*
X128632701Y-64427476D01*
X128639108Y-64487081D01*
X128651859Y-64521269D01*
X128656842Y-64590961D01*
X128651859Y-64607931D01*
X128639108Y-64642118D01*
X128632701Y-64701716D01*
X128632701Y-64701723D01*
X128632700Y-64701735D01*
X128632700Y-65697470D01*
X128632701Y-65697476D01*
X128639108Y-65757081D01*
X128651859Y-65791269D01*
X128656842Y-65860961D01*
X128651859Y-65877931D01*
X128639108Y-65912118D01*
X128632701Y-65971716D01*
X128632701Y-65971723D01*
X128632700Y-65971735D01*
X128632700Y-66967470D01*
X128632701Y-66967476D01*
X128639108Y-67027081D01*
X128651859Y-67061269D01*
X128656842Y-67130961D01*
X128651859Y-67147931D01*
X128639108Y-67182118D01*
X128635201Y-67218463D01*
X128632701Y-67241723D01*
X128632700Y-67241735D01*
X128632700Y-68237470D01*
X128632701Y-68237476D01*
X128639108Y-68297081D01*
X128651859Y-68331269D01*
X128656842Y-68400961D01*
X128651859Y-68417931D01*
X128639108Y-68452118D01*
X128632701Y-68511716D01*
X128632701Y-68511723D01*
X128632700Y-68511735D01*
X128632700Y-69507470D01*
X128632701Y-69507476D01*
X128639108Y-69567081D01*
X128651859Y-69601269D01*
X128656842Y-69670961D01*
X128651859Y-69687931D01*
X128639108Y-69722118D01*
X128632701Y-69781716D01*
X128632701Y-69781723D01*
X128632700Y-69781735D01*
X128632700Y-70777470D01*
X128632701Y-70777476D01*
X128639108Y-70837081D01*
X128651859Y-70871269D01*
X128656842Y-70940961D01*
X128651859Y-70957931D01*
X128639108Y-70992118D01*
X128632701Y-71051716D01*
X128632701Y-71051723D01*
X128632700Y-71051735D01*
X128632700Y-72047470D01*
X128632701Y-72047476D01*
X128639108Y-72107081D01*
X128651859Y-72141269D01*
X128656842Y-72210961D01*
X128651859Y-72227931D01*
X128639108Y-72262118D01*
X128632701Y-72321716D01*
X128632701Y-72321723D01*
X128632700Y-72321735D01*
X128632700Y-73317470D01*
X128632701Y-73317476D01*
X128639108Y-73377081D01*
X128651859Y-73411269D01*
X128656842Y-73480961D01*
X128651859Y-73497931D01*
X128639108Y-73532118D01*
X128632701Y-73591716D01*
X128632701Y-73591723D01*
X128632700Y-73591735D01*
X128632700Y-74587470D01*
X128632701Y-74587476D01*
X128639108Y-74647081D01*
X128651859Y-74681269D01*
X128656842Y-74750961D01*
X128651859Y-74767931D01*
X128639108Y-74802118D01*
X128632701Y-74861716D01*
X128632701Y-74861723D01*
X128632700Y-74861735D01*
X128632700Y-75857470D01*
X128632701Y-75857476D01*
X128639108Y-75917081D01*
X128651859Y-75951269D01*
X128656842Y-76020961D01*
X128651859Y-76037931D01*
X128639108Y-76072118D01*
X128632701Y-76131716D01*
X128632701Y-76131723D01*
X128632700Y-76131735D01*
X128632700Y-77127470D01*
X128632701Y-77127476D01*
X128639108Y-77187081D01*
X128651859Y-77221269D01*
X128656842Y-77290961D01*
X128651859Y-77307931D01*
X128639108Y-77342118D01*
X128632701Y-77401716D01*
X128632701Y-77401723D01*
X128632700Y-77401735D01*
X128632700Y-77676196D01*
X128613015Y-77743235D01*
X128560211Y-77788990D01*
X128491053Y-77798934D01*
X128439810Y-77779299D01*
X128435783Y-77776608D01*
X128435772Y-77776602D01*
X128290101Y-77716264D01*
X128290089Y-77716261D01*
X128135445Y-77685500D01*
X128135442Y-77685500D01*
X127977758Y-77685500D01*
X127977755Y-77685500D01*
X127823110Y-77716261D01*
X127823098Y-77716264D01*
X127677427Y-77776602D01*
X127677414Y-77776609D01*
X127546311Y-77864210D01*
X127546307Y-77864213D01*
X127434813Y-77975707D01*
X127434810Y-77975711D01*
X127347209Y-78106814D01*
X127347202Y-78106827D01*
X127286864Y-78252498D01*
X127286861Y-78252510D01*
X127256100Y-78407153D01*
X126440919Y-78407153D01*
X126440919Y-62264906D01*
X126440919Y-62252308D01*
X126440922Y-62252302D01*
X126440920Y-62193358D01*
X126441697Y-62179505D01*
X126452280Y-62085574D01*
X126458454Y-62058522D01*
X126487356Y-61975923D01*
X126499393Y-61950927D01*
X126545953Y-61876825D01*
X126563256Y-61855129D01*
X126625129Y-61793256D01*
X126646825Y-61775953D01*
X126720927Y-61729393D01*
X126745923Y-61717356D01*
X126828522Y-61688454D01*
X126855574Y-61682280D01*
X126949505Y-61671697D01*
X126963366Y-61670920D01*
X127022302Y-61670922D01*
X127022305Y-61670920D01*
X127030925Y-61670921D01*
X127030954Y-61670920D01*
X128664153Y-61670920D01*
X128731192Y-61690605D01*
G37*
%TD.AperFunction*%
%TD*%
M02*
