M48
; DRILL file {KiCad 9.0.3} date 2025-11-02T21:37:29-0500
; FORMAT={-:-/ absolute / inch / decimal}
; #@! TF.CreationDate,2025-11-02T21:37:29-05:00
; #@! TF.GenerationSoftware,Kicad,Pcbnew,9.0.3
; #@! TF.FileFunction,Plated,1,4,PTH
FMAT,2
INCH
; #@! TA.AperFunction,Plated,PTH,ViaDrill
T1C0.0118
; #@! TA.AperFunction,Plated,PTH,ComponentDrill
T2C0.0236
%
G90
G05
T1
X5.0416Y-3.09
X5.258Y-2.8956
X5.364Y-3.022
X5.4014Y-2.9812
X5.406Y-2.744
X5.4391Y-2.808
X5.4644Y-2.8344
X5.488Y-2.808
X5.54Y-3.034
X5.578Y-3.014
X5.62Y-2.79
X5.672Y-3.0
X5.698Y-2.568
X5.734Y-3.228
X5.766Y-3.228
X5.786Y-2.448
X5.8025Y-2.5169
X5.8025Y-2.9669
X5.8025Y-3.0169
X5.86Y-2.966
X5.86Y-3.018
T2
G00X5.2799Y-2.526
M15
G01X5.2799Y-2.4945
M16
G05
G00X5.2799Y-2.6965
M15
G01X5.2799Y-2.6532
M16
G05
G00X5.6201Y-2.526
M15
G01X5.6201Y-2.4945
M16
G05
G00X5.6201Y-2.6965
M15
G01X5.6201Y-2.6532
M16
G05
M30
